<svg id="Layer_1" enable-background="new 0 0 512 512" height="512" viewBox="0 0 512 512" width="512" xmlns="http://www.w3.org/2000/svg"><path d="m443.602 252.838c-25.196-86.926-138.057-109.482-194.836-39.078-6.722-1.433-13.209-1.932-19.768-1.689-3.59-14.029-10.297-26.969-19.701-38.055l28.361-28.36c3.125-3.124 3.125-8.189 0-11.313-3.124-3.124-8.189-3.124-11.313 0l-28.359 28.357c-15.281-12.971-34.006-20.729-53.986-22.367v-32.333c0-4.419-3.581-8-8-8s-8 3.581-8 8v32.333c-19.981 1.638-38.707 9.397-53.986 22.367l-28.357-28.357c-3.124-3.124-8.189-3.124-11.313 0-3.125 3.124-3.125 8.189 0 11.313l28.356 28.358c-12.971 15.28-20.729 34.006-22.367 53.986h-32.333c-4.418 0-8 3.581-8 8s3.582 8 8 8h32.333c1.638 19.982 9.396 38.708 22.367 53.986l-28.357 28.357c-3.125 3.124-3.125 8.189 0 11.313 3.124 3.124 8.189 3.124 11.313 0l28.365-28.365c7.846 6.638 16.716 11.991 26.219 15.811-16.034 41.708 14.888 86.898 59.76 86.898h88c4.419 0 8-3.582 8-8s-3.581-8-8-8h-88c-26.467 0-48-21.533-48-48s21.533-48 48-48c4.419 0 8-3.582 8-8 0-35.29 28.71-64 64-64 35.786 0 64 29.266 64 64 0 4.418 3.582 8 8 8s8-3.582 8-8c0-31.505-18.765-59.95-46.817-72.79 52.83-57.606 147.007-31.003 164.288 42.804.798 3.41 3.721 5.904 7.214 6.156 33.26 2.397 59.315 30.435 59.315 63.83 0 35.29-28.71 64-64 64h-136c-4.418 0-8 3.582-8 8s3.582 8 8 8h136c44.112 0 80-35.888 80-80 0-39.794-29.603-73.503-68.398-79.162zm-291.249 31.616c-18.303 2.189-34.246 12.143-44.461 26.453-53.943-20.263-69.902-90.047-28.453-131.472 43.546-43.571 117.258-23.281 133.571 34.845-32.607 7.968-57.443 35.974-60.657 70.174z"/><circle cx="272" cy="404" r="8"/></svg>