<svg id="Layer_1" enable-background="new 0 0 512 512" height="512" viewBox="0 0 512 512" width="512" xmlns="http://www.w3.org/2000/svg"><path d="m256 352c52.935 0 96-43.065 96-96s-43.065-96-96-96-96 43.065-96 96 43.065 96 96 96zm0-175.999c44.112 0 80 35.888 80 80s-35.888 80-80 80-80-35.888-80-80 35.888-80 80-80z"/><path d="m368 256c0 61.757-50.243 112-112 112-4.419 0-8 3.582-8 8s3.581 8 8 8c70.58 0 128-57.42 128-128 0-4.418-3.582-8-8-8-4.419.001-8 3.582-8 8z"/><path d="m128 256c0 4.418 3.581 8 8 8s8-3.582 8-8c0-61.757 50.243-112 112-112 4.418 0 8-3.582 8-8 0-4.419-3.582-8-8-8-70.58.001-128 57.421-128 128z"/><path d="m504 80h-248c-97.047 0-176 78.953-176 176v88c0 39.701-32.299 72-72 72-4.418 0-8 3.582-8 8s3.582 8 8 8h248c97.047 0 176-78.953 176-176v-88c0-39.701 32.299-72 72-72 4.418 0 8-3.581 8-8s-3.582-8-8-8zm-88 88v88c0 88.224-71.776 160-160 160h-197.455c22.638-15.939 37.455-42.271 37.455-72v-88c0-88.224 71.776-160 160-160h197.455c-22.638 15.939-37.455 42.271-37.455 72z"/><path d="m300.943 153.38c25.955 11.385 46.48 31.963 57.795 57.945 1.311 3.011 4.251 4.808 7.338 4.808 5.718 0 9.641-5.891 7.33-11.196-12.928-29.688-36.38-53.202-66.037-66.21-4.046-1.776-8.765.067-10.54 4.113-1.774 4.046.067 8.765 4.114 10.54z"/><path d="m211.332 358.74c-26.049-11.342-46.657-31.927-58.026-57.965-1.768-4.049-6.485-5.899-10.533-4.13-4.049 1.768-5.898 6.484-4.13 10.533 12.991 29.75 36.538 53.272 66.302 66.231 4.067 1.77 8.772-.106 10.529-4.141 1.763-4.05-.091-8.764-4.142-10.528z"/></svg>