<svg id="Layer_1" enable-background="new 0 0 512 512" height="512" viewBox="0 0 512 512" width="512" xmlns="http://www.w3.org/2000/svg"><path d="m64 239.984h32c0 35.29 28.71 64 64 64h88c4.418 0 8-3.581 8-8 0-4.418-3.582-8-8-8h-88c-26.468 0-48-21.533-48-48s21.532-48 48-48c4.418 0 8-3.581 8-8 0-35.29 28.71-64 64-64 35.786 0 64 29.266 64 64 0 4.419 3.582 8 8 8s8-3.581 8-8c0-31.505-18.765-59.95-46.817-72.79 52.113-56.828 146.735-32.161 164.288 42.804.798 3.41 3.721 5.904 7.214 6.156 33.26 2.398 59.315 30.435 59.315 63.83 0 35.29-28.71 64-64 64h-136c-4.418 0-8 3.582-8 8 0 4.419 3.582 8 8 8h136c44.112 0 80-35.888 80-80 0-39.794-29.603-73.503-68.398-79.162-13.097-45.182-53.642-78.391-102.339-80.703-35.446-75.097-136.896-86.359-188.497-22.374-47.277-10.082-91.993 23.667-96.413 70.694-31.699 3.79-56.353 30.843-56.353 63.545 0 35.29 28.71 64 64 64zm0-112c4.418 0 8-3.581 8-8 0-42.63 40.99-73.225 81.71-61.521 3.223.928 6.695-.26 8.676-2.978 40.982-56.247 126.822-51.642 161.171 9.201-29.195 3.293-56.238 18.053-74.791 41.058-47.277-10.082-91.993 23.667-96.413 70.694-26.343 3.15-47.806 22.373-54.311 47.546h-34.042c-26.468 0-48-21.533-48-48s21.532-48 48-48z"/><path d="m32 447.984c-17.645 0-32 14.355-32 32s14.356 32 32 32 32-14.355 32-32-14.355-32-32-32zm0 48c-8.822 0-16-7.178-16-16s7.178-16 16-16 16 7.178 16 16c0 8.823-7.178 16-16 16z"/><path d="m141.121 321.838c-3.392-2.827-8.438-2.371-11.267 1.024l-80 96c-4.37 5.244-.553 13.122 6.142 13.122 2.292 0 4.567-.98 6.149-2.878l80-96c2.83-3.395 2.371-8.439-1.024-11.268z"/><path d="m320 447.984c-17.645 0-32 14.355-32 32s14.355 32 32 32 32-14.355 32-32-14.355-32-32-32zm0 48c-8.822 0-16-7.178-16-16s7.178-16 16-16 16 7.178 16 16c0 8.823-7.178 16-16 16z"/><path d="m509.121 321.838c-3.393-2.827-8.439-2.371-11.267 1.024l-80 96c-4.37 5.244-.553 13.122 6.142 13.122 2.292 0 4.567-.98 6.149-2.878l80-96c2.83-3.395 2.371-8.439-1.024-11.268z"/><path d="m128 447.984c-17.645 0-32 14.355-32 32s14.355 32 32 32 32-14.355 32-32-14.355-32-32-32zm0 48c-8.822 0-16-7.178-16-16s7.178-16 16-16 16 7.178 16 16c0 8.823-7.178 16-16 16z"/><path d="m416 447.984c-17.645 0-32 14.355-32 32s14.355 32 32 32 32-14.355 32-32-14.355-32-32-32zm0 48c-8.822 0-16-7.178-16-16s7.178-16 16-16 16 7.178 16 16c0 8.823-7.178 16-16 16z"/><path d="m277.66 301.644c3.116-3.117 3.115-8.203 0-11.32-3.116-3.115-8.203-3.116-11.32 0-3.111 3.111-3.117 8.203 0 11.32 3.115 3.115 8.203 3.117 11.32 0z"/><path d="m229.121 321.838c-3.393-2.827-8.438-2.371-11.267 1.024l-80 96c-4.37 5.244-.553 13.122 6.142 13.122 2.292 0 4.567-.98 6.149-2.878l80-96c2.83-3.395 2.371-8.439-1.024-11.268z"/><path d="m330.879 430.13c3.385 2.821 8.432 2.378 11.267-1.024l80-96c2.829-3.395 2.37-8.439-1.024-11.268-3.393-2.827-8.438-2.371-11.267 1.024l-80 96c-2.83 3.395-2.371 8.44 1.024 11.268z"/><path d="m224 447.984c-17.645 0-32 14.355-32 32s14.355 32 32 32 32-14.355 32-32-14.355-32-32-32zm0 48c-8.822 0-16-7.178-16-16s7.178-16 16-16 16 7.178 16 16c0 8.823-7.178 16-16 16z"/><path d="m234.879 430.13c3.385 2.821 8.432 2.378 11.267-1.024l80-96c2.829-3.395 2.37-8.439-1.024-11.268-3.393-2.827-8.439-2.371-11.267 1.024l-80 96c-2.83 3.395-2.371 8.44 1.024 11.268z"/></svg>