<svg id="Layer_1" enable-background="new 0 0 512 512" height="512" viewBox="0 0 512 512" width="512" xmlns="http://www.w3.org/2000/svg"><path d="m443.602 144.838c-25.16-86.793-137.948-109.625-194.838-39.057-26.434-5.661-53.867 2.317-73.196 21.574-12.522-1.889-24.031-7.961-32.716-17.363-29.376-31.802-10.874-82.316 20.088-94.552 8.18-3.232 5.843-15.44-2.94-15.44h-32c-70.58 0-128 57.42-128 128 0 58.899 40.544 110.273 97.191 124.261 5.738 29.443 31.713 51.739 62.809 51.739h136c4.418 0 8-3.582 8-8s-3.582-8-8-8h-136c-26.467 0-48-21.533-48-48s21.533-48 48-48c4.418 0 8-3.581 8-8 0-35.29 28.71-64 64-64s64 28.71 64 64c0 4.419 3.582 8 8 8s8-3.581 8-8c0-32.284-19.233-60.143-46.834-72.772 52.831-57.639 147.026-31.021 164.304 42.787.798 3.41 3.722 5.904 7.214 6.156 33.262 2.396 59.316 30.434 59.316 63.829 0 35.29-28.71 64-64 64h-72c-4.418 0-8 3.582-8 8s3.582 8 8 8h72c44.112 0 80-35.888 80-80 0-39.794-29.603-73.503-68.398-79.162zm-291.249 31.616c-30.202 3.611-53.992 28.345-56.172 58.958-47.007-13.889-80.181-57.57-80.181-107.412 0-61.757 50.243-112 112-112h6.496c-40.383 41.932-23.937 110.105 29.895 125.29-6.57 10.361-10.831 22.324-12.038 35.164z"/><path d="m333.66 301.66c3.115-3.114 3.117-8.203 0-11.32-3.115-3.115-8.204-3.116-11.32 0-3.114 3.114-3.117 8.204 0 11.32 3.114 3.115 8.203 3.117 11.32 0z"/><path d="m263.155 324.422c-2.941-5.883-11.366-5.891-14.311 0-34.899 69.8-32.844 64.882-32.844 67.578 0 22.056 17.944 40 40 40s40-17.944 40-40c0-2.698 2.022 2.156-32.845-67.578zm-7.155 91.578c-12.642 0-23.032-9.824-23.936-22.239l23.936-47.872 23.936 47.872c-.904 12.415-11.294 22.239-23.936 22.239z"/><path d="m95.155 324.422c-2.941-5.883-11.366-5.891-14.311 0-34.899 69.8-32.844 64.882-32.844 67.578 0 22.056 17.944 40 40 40s40-17.944 40-40c0-2.698 2.022 2.156-32.845-67.578zm-7.155 91.578c-12.642 0-23.032-9.824-23.936-22.239l23.936-47.872 23.936 47.872c-.904 12.415-11.294 22.239-23.936 22.239z"/><path d="m175.155 404.422c-2.941-5.883-11.366-5.891-14.311 0-34.899 69.8-32.844 64.882-32.844 67.578 0 22.056 17.944 40 40 40s40-17.944 40-40c0-2.698 2.022 2.156-32.845-67.578zm-7.155 91.578c-12.642 0-23.032-9.824-23.936-22.239l23.936-47.872 23.936 47.872c-.904 12.415-11.294 22.239-23.936 22.239z"/><path d="m431.155 324.422c-2.941-5.883-11.366-5.891-14.311 0-34.899 69.8-32.844 64.882-32.844 67.578 0 22.056 17.944 40 40 40s40-17.944 40-40c0-2.698 2.022 2.156-32.845-67.578zm-7.155 91.578c-12.642 0-23.032-9.824-23.936-22.239l23.936-47.872 23.936 47.872c-.904 12.415-11.294 22.239-23.936 22.239z"/><path d="m359.155 404.422c-2.941-5.883-11.366-5.891-14.311 0-34.899 69.8-32.844 64.882-32.844 67.578 0 22.056 17.944 40 40 40s40-17.944 40-40c0-2.698 2.022 2.156-32.845-67.578zm-7.155 91.578c-12.642 0-23.032-9.824-23.936-22.239l23.936-47.872 23.936 47.872c-.904 12.415-11.294 22.239-23.936 22.239z"/></svg>