<svg id="Layer_1" enable-background="new 0 0 512 512" height="512" viewBox="0 0 512 512" width="512" xmlns="http://www.w3.org/2000/svg"><path d="m443.602 144.838c-25.16-86.793-137.948-109.625-194.838-39.057-9.13-1.955-18.342-2.299-27.61-1.036-3.557-14.252-10.385-27.501-19.869-38.716l20.372-20.373c3.125-3.124 3.125-8.189 0-11.313-3.124-3.124-8.189-3.124-11.313 0l-20.365 20.365c-15.26-12.914-34.152-20.705-53.979-22.363v-24.345c0-4.418-3.581-8-8-8s-8 3.582-8 8v24.336c-20.469 1.697-39.133 9.843-53.955 22.396l-20.388-20.389c-3.124-3.124-8.189-3.124-11.313 0-3.125 3.124-3.125 8.189 0 11.313l20.388 20.388c-12.553 14.823-20.699 33.487-22.396 53.956h-24.336c-4.418 0-8 3.581-8 8s3.582 8 8 8h24.344c1.701 20.253 9.803 38.986 22.418 53.925l-20.418 20.419c-3.125 3.124-3.125 8.189 0 11.313 3.124 3.125 8.189 3.124 11.313 0l20.401-20.401c9.603 8.155 20.855 14.477 33.271 18.36-13.908 41.287 16.926 84.384 60.671 84.384h136c4.418 0 8-3.582 8-8s-3.582-8-8-8h-136c-26.467 0-48-21.533-48-48s21.533-48 48-48c4.419 0 8-3.581 8-8 0-35.29 28.71-64 64-64s64 28.71 64 64c0 4.419 3.581 8 8 8 4.418 0 8-3.581 8-8 0-32.284-19.233-60.143-46.834-72.772 52.831-57.639 147.026-31.021 164.304 42.787.798 3.41 3.722 5.904 7.214 6.156 33.262 2.396 59.316 30.434 59.316 63.829 0 35.29-28.71 64-64 64h-72c-4.419 0-8 3.582-8 8s3.581 8 8 8h72c44.112 0 80-35.888 80-80 0-39.794-29.604-73.503-68.398-79.162zm-291.249 31.616c-19.198 2.296-35.8 13.133-45.918 28.581-34.172-9.541-58.435-41.071-58.435-77.035 0-68.375 80.706-104.958 132.165-60.651 12.567 10.821 21.438 25.237 25.434 41.137-28.902 10.133-50.28 36.411-53.246 67.968z"/><path d="m333.66 301.66c3.115-3.115 3.117-8.203 0-11.32-3.115-3.115-8.203-3.116-11.32 0-3.114 3.114-3.117 8.203 0 11.32 3.112 3.112 8.203 3.117 11.32 0z"/><path d="m263.155 324.422c-2.941-5.883-11.366-5.891-14.311 0-34.899 69.8-32.844 64.882-32.844 67.578 0 22.056 17.944 40 40 40s40-17.944 40-40c0-2.698 2.022 2.156-32.845-67.578zm-7.155 91.578c-12.642 0-23.032-9.824-23.936-22.239l23.936-47.872 23.936 47.872c-.904 12.415-11.294 22.239-23.936 22.239z"/><path d="m95.155 324.422c-2.941-5.883-11.366-5.891-14.311 0-34.899 69.8-32.844 64.882-32.844 67.578 0 22.056 17.944 40 40 40s40-17.944 40-40c0-2.698 2.022 2.156-32.845-67.578zm-7.155 91.578c-12.642 0-23.032-9.824-23.936-22.239l23.936-47.872 23.936 47.872c-.904 12.415-11.294 22.239-23.936 22.239z"/><path d="m175.155 404.422c-2.941-5.883-11.366-5.891-14.311 0-34.899 69.8-32.844 64.882-32.844 67.578 0 22.056 17.944 40 40 40s40-17.944 40-40c0-2.698 2.022 2.156-32.845-67.578zm-7.155 91.578c-12.642 0-23.032-9.824-23.936-22.239l23.936-47.872 23.936 47.872c-.904 12.415-11.294 22.239-23.936 22.239z"/><path d="m431.155 324.422c-2.941-5.883-11.366-5.891-14.311 0-34.899 69.8-32.844 64.882-32.844 67.578 0 22.056 17.944 40 40 40s40-17.944 40-40c0-2.698 2.022 2.156-32.845-67.578zm-7.155 91.578c-12.642 0-23.032-9.824-23.936-22.239l23.936-47.872 23.936 47.872c-.904 12.415-11.294 22.239-23.936 22.239z"/><path d="m359.155 404.422c-2.941-5.883-11.366-5.891-14.311 0-34.899 69.8-32.844 64.882-32.844 67.578 0 22.056 17.944 40 40 40s40-17.944 40-40c0-2.698 2.022 2.156-32.845-67.578zm-7.155 91.578c-12.642 0-23.032-9.824-23.936-22.239l23.936-47.872 23.936 47.872c-.904 12.415-11.294 22.239-23.936 22.239z"/></svg>