<svg id="Layer_1" enable-background="new 0 0 511.998 511.998" height="512" viewBox="0 0 511.998 511.998" width="512" xmlns="http://www.w3.org/2000/svg"><path d="m471.999 216.001c-19.316 0-35.477 13.764-39.194 31.999h-45.495l34.345-34.344c3.124-3.124 3.124-8.19 0-11.314-3.125-3.124-8.19-3.124-11.315 0l-45.657 45.658h-37.139c-1.541-13.865-7.035-26.547-15.326-36.905l35.096-35.095h60.685c4.418 0 8-3.581 8-8s-3.582-8-8-8h-44.685l38.645-38.646c26.265 17.413 62.041-1.341 62.041-33.355-.001-22.056-17.944-39.999-40-39.999-32.016 0-50.768 35.778-33.355 62.04l-38.646 38.646v-44.686c0-4.419-3.582-8-8-8s-8 3.581-8 8v60.686l-35.095 35.095c-10.358-8.291-23.04-13.784-36.904-15.325v-37.143l45.656-45.657c3.124-3.124 3.124-8.189 0-11.313-3.125-3.124-8.189-3.124-11.314 0l-34.342 34.343v-45.493c18.235-3.717 31.999-19.878 31.999-39.194 0-22.056-17.943-39.999-39.999-39.999s-39.999 17.943-39.999 39.999c0 19.316 13.764 35.478 31.999 39.194v45.494l-34.344-34.344c-3.125-3.124-8.189-3.124-11.314 0-3.124 3.124-3.124 8.189 0 11.313l45.658 45.659v37.142c-13.864 1.541-26.547 7.035-36.905 15.325l-35.096-35.096v-60.686c0-4.419-3.582-8-8-8s-8 3.581-8 8v44.686l-38.645-38.646c17.413-26.264-1.341-62.04-33.356-62.04-22.056 0-39.999 17.943-39.999 39.999 0 32.018 35.779 50.767 62.041 33.355l38.644 38.646h-44.685c-4.418 0-8 3.581-8 8s3.582 8 8 8h60.685l35.097 35.096c-8.291 10.358-13.784 23.04-15.325 36.904h-29.142l-45.658-45.658c-3.125-3.124-8.189-3.124-11.314 0-3.124 3.124-3.124 8.189 0 11.314l34.344 34.344h-53.493c-3.717-18.235-19.878-31.999-39.194-31.999-22.056 0-39.999 17.943-39.999 39.999s17.943 39.999 39.999 39.999c19.316 0 35.478-13.764 39.194-31.999h53.49l-34.343 34.342c-3.124 3.124-3.124 8.189 0 11.314 3.126 3.125 8.189 3.124 11.314 0l45.657-45.656h29.145c1.541 13.867 7.036 26.551 15.328 36.91l-35.093 35.09h-60.692c-4.418 0-8 3.582-8 8s3.582 8 8 8h44.691l-38.65 38.647c-26.262-17.418-62.041 1.34-62.041 33.354 0 22.056 17.943 39.999 39.999 39.999 32.016 0 50.768-35.778 33.355-62.04l38.645-38.642v44.682c0 4.418 3.582 8 8 8s8-3.582 8-8v-60.681l35.1-35.097c10.358 8.289 23.039 13.781 36.901 15.322v29.141l-45.658 45.658c-3.124 3.124-3.124 8.189 0 11.313 3.125 3.124 8.189 3.124 11.314 0l34.345-34.343v53.492c-18.235 3.717-31.999 19.878-31.999 39.194 0 22.056 17.943 39.999 39.999 39.999s39.999-17.943 39.999-39.999c0-19.316-13.764-35.477-31.999-39.194v-53.49l34.342 34.342c1.563 1.562 3.609 2.343 5.657 2.343 7.061 0 10.714-8.6 5.657-13.657l-45.656-45.655v-29.143c13.864-1.54 26.546-7.035 36.904-15.325l35.095 35.095v60.685c0 4.418 3.582 8 8 8s8-3.582 8-8v-44.685l38.646 38.645c-17.414 26.264 1.34 62.04 33.355 62.04 22.056 0 39.999-17.943 39.999-39.999 0-32.018-35.779-50.767-62.041-33.355l-38.644-38.646h44.685c4.418 0 8-3.582 8-8s-3.582-8-8-8h-60.685l-35.095-35.094c8.291-10.359 13.785-23.041 15.325-36.906h37.141l45.656 45.656c1.563 1.562 3.609 2.343 5.657 2.343 7.068 0 10.707-8.607 5.657-13.657l-34.342-34.342h45.492c3.717 18.235 19.878 31.999 39.194 31.999 22.056 0 39.999-17.943 39.999-39.999s-17.943-39.999-39.999-39.999zm-160.001 40.038c-.02 30.86-25.133 55.961-55.998 55.961-30.878 0-55.999-25.121-55.999-55.999s25.121-55.999 55.999-55.999c30.786-.001 55.998 25.014 55.998 56.037zm112.002-192.039c13.233 0 23.999 10.766 23.999 23.999s-10.766 23.999-23.999 23.999-23.999-10.766-23.999-23.999 10.766-23.999 23.999-23.999zm-191.999-24.001c0-13.233 10.766-23.999 23.999-23.999s23.999 10.766 23.999 23.999-10.766 23.999-23.999 23.999-23.999-10.766-23.999-23.999zm-168.002 48c0-13.233 10.766-23.999 23.999-23.999s23.999 10.766 23.999 23.999-10.766 23.999-23.999 23.999-23.999-10.766-23.999-23.999zm-24 192c-13.233 0-23.999-10.766-23.999-23.999s10.766-23.999 23.999-23.999 23.999 10.766 23.999 23.999-10.766 23.999-23.999 23.999zm47.999 168.001c-13.233 0-23.999-10.766-23.999-23.999s10.766-23.999 23.999-23.999 23.999 10.766 23.999 23.999-10.766 23.999-23.999 23.999zm192.001 23.999c0 13.233-10.766 23.999-23.999 23.999s-23.999-10.766-23.999-23.999 10.766-23.999 23.999-23.999 23.999 10.766 23.999 23.999zm168-47.998c0 13.233-10.766 23.999-23.999 23.999s-23.999-10.766-23.999-23.999 10.766-23.999 23.999-23.999 23.999 10.766 23.999 23.999zm24-144.002c-13.233 0-23.999-10.766-23.999-23.999s10.766-23.999 23.999-23.999 23.999 10.766 23.999 23.999-10.766 23.999-23.999 23.999z"/></svg>