<svg id="Layer_1" enable-background="new 0 0 512 512" height="512" viewBox="0 0 512 512" width="512" xmlns="http://www.w3.org/2000/svg"><path d="m54.762 189.925-20.418 20.419c-3.125 3.124-3.125 8.189 0 11.313 3.124 3.125 8.189 3.124 11.313 0l20.401-20.401c9.603 8.155 20.855 14.477 33.271 18.36-13.906 41.292 16.926 84.384 60.671 84.384h88c4.419 0 8-3.582 8-8s-3.582-8-8-8h-88c-26.467 0-48-21.533-48-48s21.533-48 48-48c4.419 0 8-3.581 8-8 0-35.29 28.71-64 64-64 35.739 0 64 29.216 64 64 0 4.419 3.582 8 8 8s8-3.581 8-8c0-31.505-18.765-59.95-46.817-72.79 52.83-57.606 147.007-31.003 164.288 42.804.798 3.41 3.721 5.904 7.214 6.156 33.26 2.397 59.315 30.435 59.315 63.83 0 35.29-28.71 64-64 64h-120c-4.418 0-8 3.582-8 8s3.582 8 8 8h120c44.112 0 80-35.888 80-80 0-39.794-29.603-73.503-68.398-79.162-25.197-86.926-138.058-109.482-194.836-39.078-8.889-1.896-18.193-2.298-27.612-1.015-3.557-14.252-10.385-27.501-19.869-38.716l20.372-20.373c3.125-3.124 3.125-8.189 0-11.313-3.124-3.124-8.189-3.124-11.313 0l-20.365 20.365c-15.259-12.914-34.152-20.704-53.979-22.363v-24.345c0-4.418-3.581-8-8-8-4.418 0-8 3.582-8 8v24.336c-20.469 1.697-39.133 9.843-53.955 22.396l-20.388-20.389c-3.124-3.124-8.189-3.124-11.313 0-3.125 3.124-3.125 8.189 0 11.313l20.388 20.388c-12.553 14.823-20.699 33.487-22.396 53.956h-24.336c-4.418 0-8 3.581-8 8s3.582 8 8 8h24.344c1.701 20.253 9.803 38.986 22.418 53.925zm73.238-141.925c37.102 0 68.78 25.398 77.599 60.485-28.902 10.134-50.28 36.412-53.246 67.969-19.198 2.296-35.8 13.133-45.918 28.581-34.172-9.541-58.435-41.071-58.435-77.035 0-44.112 35.888-80 80-80z"/><path d="m325.657 402.343c-3.125-3.124-8.189-3.124-11.314 0l-29.657 29.657h-20.686v-20.686l29.657-29.657c3.124-3.124 3.124-8.189 0-11.313-3.125-3.124-8.189-3.124-11.314 0l-18.343 18.342v-12.686c0-4.418-3.582-8-8-8-4.419 0-8 3.582-8 8v12.686l-18.343-18.343c-3.124-3.124-8.189-3.124-11.313 0s-3.124 8.189 0 11.313l29.656 29.658v20.686h-20.686l-29.657-29.657c-3.124-3.124-8.189-3.124-11.313 0s-3.124 8.189 0 11.313l18.342 18.344h-12.686c-4.418 0-8 3.582-8 8s3.582 8 8 8h12.686l-18.343 18.343c-3.124 3.124-3.124 8.189 0 11.313s8.189 3.124 11.313 0l29.658-29.656h20.686v20.686l-29.657 29.657c-3.124 3.124-3.124 8.189 0 11.313s8.189 3.124 11.313 0l18.344-18.342v12.686c0 4.418 3.582 8 8 8s8-3.582 8-8v-12.686l18.343 18.343c3.125 3.125 8.189 3.124 11.314 0 3.124-3.124 3.124-8.189 0-11.313l-29.657-29.658v-20.686h20.685l29.657 29.657c1.563 1.562 3.609 2.343 5.657 2.343 7.061 0 10.714-8.6 5.657-13.657l-18.342-18.343h12.686c4.418 0 8-3.582 8-8s-3.582-8-8-8h-12.687l18.344-18.343c3.124-3.124 3.124-8.19 0-11.314z"/><path d="m493.657 354.343c-3.125-3.124-8.189-3.124-11.314 0l-29.657 29.657h-20.686v-20.686l29.657-29.657c3.124-3.124 3.124-8.189 0-11.313-3.125-3.124-8.189-3.124-11.314 0l-18.343 18.342v-12.686c0-4.418-3.582-8-8-8s-8 3.582-8 8v12.686l-18.343-18.343c-3.125-3.124-8.189-3.124-11.314 0-3.124 3.124-3.124 8.189 0 11.313l29.657 29.658v20.686h-20.686l-29.657-29.657c-3.125-3.124-8.189-3.124-11.314 0-3.124 3.124-3.124 8.189 0 11.313l18.344 18.344h-12.687c-4.418 0-8 3.582-8 8s3.582 8 8 8h12.686l-18.344 18.343c-3.124 3.124-3.124 8.189 0 11.313 3.125 3.125 8.189 3.124 11.314 0l29.659-29.656h20.685v20.686l-29.657 29.657c-3.124 3.124-3.124 8.189 0 11.313 3.125 3.124 8.189 3.124 11.314 0l18.343-18.342v12.686c0 4.418 3.582 8 8 8s8-3.582 8-8v-12.686l18.343 18.343c3.125 3.125 8.189 3.124 11.314 0 3.124-3.124 3.124-8.189 0-11.313l-29.657-29.658v-20.686h20.685l29.657 29.657c1.563 1.562 3.609 2.343 5.657 2.343 7.061 0 10.714-8.6 5.657-13.657l-18.342-18.343h12.686c4.418 0 8-3.582 8-8s-3.582-8-8-8h-12.687l18.344-18.343c3.124-3.124 3.124-8.19 0-11.314z"/><path d="m157.657 354.343c-3.124-3.124-8.189-3.124-11.313 0l-29.657 29.657h-20.687v-20.686l29.657-29.657c3.125-3.124 3.125-8.189 0-11.313-3.124-3.124-8.189-3.124-11.313 0l-18.344 18.342v-12.686c0-4.418-3.582-8-8-8-4.419 0-8 3.582-8 8v12.686l-18.343-18.343c-3.124-3.124-8.189-3.124-11.313 0-3.125 3.124-3.125 8.189 0 11.313l29.656 29.658v20.686h-20.686l-29.657-29.657c-3.124-3.124-8.189-3.124-11.313 0s-3.124 8.189 0 11.313l18.342 18.344h-12.686c-4.418 0-8 3.582-8 8s3.582 8 8 8h12.686l-18.343 18.343c-3.124 3.124-3.124 8.189 0 11.313s8.189 3.124 11.313 0l29.658-29.656h20.686v20.686l-29.657 29.657c-3.125 3.124-3.125 8.189 0 11.313 3.124 3.124 8.189 3.124 11.313 0l18.344-18.342v12.686c0 4.418 3.581 8 8 8 4.418 0 8-3.582 8-8v-12.686l18.343 18.343c3.124 3.124 8.189 3.124 11.313 0 3.125-3.124 3.125-8.189 0-11.313l-29.656-29.658v-20.686h20.687l29.657 29.657c1.562 1.562 3.609 2.343 5.657 2.343 7.063 0 10.711-8.603 5.657-13.657l-18.344-18.343h12.686c4.419 0 8-3.582 8-8s-3.581-8-8-8h-12.686l18.343-18.343c3.124-3.124 3.124-8.19 0-11.314z"/><path d="m274.34 290.34c-3.114 3.114-3.117 8.203 0 11.32 3.113 3.113 8.201 3.119 11.32 0 3.116-3.117 3.115-8.203 0-11.32-3.116-3.115-8.203-3.116-11.32 0z"/></svg>