<svg id="Layer_1" enable-background="new 0 0 512 512" height="512" viewBox="0 0 512 512" width="512" xmlns="http://www.w3.org/2000/svg"><path d="m97.191 252.261c5.738 29.443 31.713 51.739 62.809 51.739h88c4.418 0 8-3.582 8-8s-3.582-8-8-8h-88c-26.468 0-48-21.533-48-48s21.532-48 48-48c4.418 0 8-3.581 8-8 0-42.558 40.911-73.244 81.708-61.522.001.001.002.001.003.001 27.254 7.831 46.289 33.129 46.289 61.521 0 4.419 3.582 8 8 8s8-3.581 8-8c0-31.505-18.765-59.95-46.817-72.79 52.11-56.823 146.736-32.16 164.288 42.804.798 3.41 3.721 5.904 7.214 6.156 33.26 2.397 59.315 30.435 59.315 63.83 0 35.29-28.71 64-64 64h-136c-4.418 0-8 3.582-8 8s3.582 8 8 8h136c44.112 0 80-35.888 80-80 0-39.794-29.603-73.503-68.398-79.162-25.023-86.327-137.742-109.874-194.836-39.078-25.612-5.462-53.304 1.775-73.198 21.595-27.142-4.094-47.568-27.473-47.568-55.355 0-24.373 15.021-48.688 34.94-56.56 8.179-3.232 5.843-15.44-2.94-15.44h-32c-70.579 0-128 57.42-128 128 0 58.899 40.545 110.273 97.191 124.261zm30.809-236.261h6.496c-13.768 14.296-22.496 34.911-22.496 56 0 32.394 21.597 60.603 52.391 69.29-6.569 10.362-10.831 22.324-12.038 35.165-30.202 3.611-53.991 28.345-56.172 58.958-47.007-13.89-80.181-57.571-80.181-107.413 0-61.757 50.243-112 112-112z"/><path d="m325.657 354.343c-3.125-3.124-8.189-3.124-11.314 0l-29.657 29.657h-20.686v-20.686l29.657-29.657c3.124-3.124 3.124-8.189 0-11.313-3.125-3.124-8.189-3.124-11.314 0l-18.343 18.342v-12.686c0-4.418-3.582-8-8-8s-8 3.582-8 8v12.686l-18.343-18.343c-3.125-3.124-8.189-3.124-11.314 0-3.124 3.124-3.124 8.189 0 11.313l29.657 29.658v20.686h-20.686l-29.657-29.657c-3.125-3.124-8.189-3.124-11.314 0-3.124 3.124-3.124 8.189 0 11.313l18.344 18.344h-12.687c-4.418 0-8 3.582-8 8s3.582 8 8 8h12.687l-18.344 18.343c-3.124 3.124-3.124 8.189 0 11.313 3.125 3.125 8.189 3.124 11.314 0l29.658-29.656h20.685v20.686l-29.657 29.657c-3.124 3.124-3.124 8.189 0 11.313 3.125 3.124 8.189 3.124 11.314 0l18.343-18.342v12.686c0 4.418 3.582 8 8 8s8-3.582 8-8v-12.686l18.343 18.343c3.125 3.125 8.189 3.124 11.314 0 3.124-3.124 3.124-8.189 0-11.313l-29.657-29.658v-20.686h20.685l29.657 29.657c1.563 1.562 3.609 2.343 5.657 2.343 7.061 0 10.714-8.6 5.657-13.657l-18.342-18.343h12.686c4.418 0 8-3.582 8-8s-3.582-8-8-8h-12.687l18.344-18.343c3.124-3.124 3.124-8.19 0-11.314z"/><path d="m493.657 402.343c-3.125-3.124-8.189-3.124-11.314 0l-29.657 29.657h-20.686v-20.686l29.657-29.657c3.124-3.124 3.124-8.189 0-11.313-3.125-3.124-8.189-3.124-11.314 0l-18.343 18.342v-12.686c0-4.418-3.582-8-8-8s-8 3.582-8 8v12.686l-18.343-18.343c-3.125-3.124-8.189-3.124-11.314 0-3.124 3.124-3.124 8.189 0 11.313l29.657 29.658v20.686h-20.686l-29.657-29.657c-3.125-3.124-8.189-3.124-11.314 0-3.124 3.124-3.124 8.189 0 11.313l18.344 18.344h-12.687c-4.418 0-8 3.582-8 8s3.582 8 8 8h12.686l-18.344 18.343c-3.124 3.124-3.124 8.189 0 11.313 3.125 3.125 8.189 3.124 11.314 0l29.659-29.656h20.685v20.686l-29.657 29.657c-3.124 3.124-3.124 8.189 0 11.313 3.125 3.124 8.189 3.124 11.314 0l18.343-18.342v12.686c0 4.418 3.582 8 8 8s8-3.582 8-8v-12.686l18.343 18.343c3.125 3.125 8.189 3.124 11.314 0 3.124-3.124 3.124-8.189 0-11.313l-29.657-29.658v-20.686h20.685l29.657 29.657c1.563 1.562 3.609 2.343 5.657 2.343 7.061 0 10.714-8.6 5.657-13.657l-18.342-18.343h12.686c4.418 0 8-3.582 8-8s-3.582-8-8-8h-12.687l18.344-18.343c3.124-3.124 3.124-8.19 0-11.314z"/><path d="m157.657 402.343c-3.125-3.124-8.189-3.124-11.314 0l-29.657 29.657h-20.686v-20.686l29.657-29.657c3.124-3.124 3.124-8.189 0-11.313-3.125-3.124-8.189-3.124-11.314 0l-18.343 18.342v-12.686c0-4.418-3.582-8-8-8s-8 3.582-8 8v12.686l-18.343-18.343c-3.125-3.124-8.189-3.124-11.314 0-3.124 3.124-3.124 8.189 0 11.313l29.657 29.658v20.686h-20.685l-29.657-29.657c-3.125-3.124-8.189-3.124-11.314 0-3.124 3.124-3.124 8.189 0 11.313l18.343 18.344h-12.687c-4.418 0-8 3.582-8 8s3.582 8 8 8h12.686l-18.344 18.343c-3.124 3.124-3.124 8.189 0 11.313 3.125 3.125 8.189 3.124 11.314 0l29.659-29.656h20.685v20.686l-29.657 29.657c-3.124 3.124-3.124 8.189 0 11.313 3.125 3.124 8.189 3.124 11.314 0l18.343-18.342v12.686c0 4.418 3.582 8 8 8s8-3.582 8-8v-12.686l18.343 18.343c3.125 3.125 8.189 3.124 11.314 0 3.124-3.124 3.124-8.189 0-11.313l-29.657-29.658v-20.686h20.686l29.657 29.657c1.563 1.562 3.609 2.343 5.657 2.343 7.061 0 10.714-8.6 5.657-13.657l-18.343-18.343h12.686c4.418 0 8-3.582 8-8s-3.582-8-8-8h-12.686l18.344-18.343c3.123-3.124 3.123-8.19-.001-11.314z"/><path d="m266.34 290.34c-3.114 3.114-3.117 8.203 0 11.32 3.115 3.115 8.203 3.117 11.32 0 3.116-3.117 3.115-8.203 0-11.32-3.116-3.115-8.203-3.116-11.32 0z"/></svg>