<svg id="Layer_1" enable-background="new 0 0 512 512" height="512" viewBox="0 0 512 512" width="512" xmlns="http://www.w3.org/2000/svg"><path d="m443.602 144.816c-13.097-45.182-53.642-78.392-102.339-80.703-35.444-75.099-136.896-86.358-188.497-22.375-47.285-10.083-91.993 23.673-96.413 70.694-31.699 3.791-56.353 30.843-56.353 63.546 0 35.29 28.71 64 64 64h32c0 35.29 28.71 64 64 64h82.31l-64.624 83.088c-4.081 5.247-.329 12.912 6.315 12.912h51.868l-43.221 100.849c-3.582 8.358 7.409 15.129 13.333 8.466l128-144c4.576-5.148.913-13.315-5.979-13.315h-53.395l13.715-48h143.678c44.112 0 80-35.888 80-80 0-39.794-29.603-73.503-68.398-79.162zm-379.602 79.162c-26.467 0-48-21.533-48-48s21.533-48 48-48c4.419 0 8-3.581 8-8 0-42.621 40.982-73.229 81.71-61.521 3.231.931 6.697-.261 8.676-2.978 40.982-56.247 126.821-51.642 161.171 9.201-29.195 3.294-56.238 18.053-74.791 41.058-47.285-10.083-91.993 23.673-96.413 70.694-26.343 3.15-47.806 22.373-54.312 47.546zm246.185 144-83.413 93.839 28.58-66.688c2.259-5.269-1.611-11.151-7.353-11.151h-47.643l76.607-98.495-20.656 72.297c-1.457 5.1 2.374 10.198 7.692 10.198zm121.815-80h-139.108l10.801-37.802c2.408-8.426-8.631-14.026-14.007-7.109l-34.932 44.912h-94.754c-26.467 0-48-21.533-48-48s21.533-48 48-48c4.419 0 8-3.581 8-8 0-35.29 28.71-64 64-64 35.786 0 64 29.266 64 64 0 4.419 3.582 8 8 8s8-3.581 8-8c0-31.505-18.765-59.95-46.817-72.79 52.115-56.827 146.735-32.161 164.288 42.804.798 3.41 3.721 5.904 7.214 6.156 33.26 2.396 59.315 30.434 59.315 63.829 0 35.29-28.71 64-64 64z"/></svg>