<svg id="Layer_1" enable-background="new 0 0 511.99 511.99" height="512" viewBox="0 0 511.99 511.99" width="512" xmlns="http://www.w3.org/2000/svg"><path d="m124.571 137.122c82.949 40.699 291.449 25.398 291.449-33.124 0-9.987-6.24-17.978-13.76-23.983 9.079-7.196 13.76-15.272 13.76-24.017 0-53.532-175.104-71.501-269.889-41.57-32.783 10.353-50.111 24.727-50.111 41.57 0 8.744 4.682 16.82 13.76 24.017-18.487 14.764-18.28 33.51-.001 48-22.238 17.761-16.453 39.427 9.02 54.041-10.201 12.902-9.383 28.61 5.832 41.942-21.489 18.83-14.32 41.559 11.938 56.353-6.836 7.364-8.549 14.429-8.549 19.648 0 18.301 19.426 30.269 36.41 37.079-8.438 13.775-5.871 31.917 17.056 45.764 3.471 2.102 7.289 4.027 11.391 5.772l55.905 118.792c2.871 6.101 11.593 6.127 14.477 0l55.904-118.792c16.251-6.912 32.857-18.891 32.857-36.615 0-4.419-3.582-8-8-8s-8 3.581-8 8c0 7.7-8.612 14.051-13.754 17.157-32.622 19.755-99.84 19.774-132.5-.005-11.802-7.129-18.623-16.368-9.487-26.707 60.303 17.161 141.923 10.077 180.24-11.47 27.666-15.545 28.493-36.036 14.952-50.622 19.784-11.146 24.549-23.269 24.549-32.352 0-4.419-3.582-8-8-8s-8 3.581-8 8c0 16.703-48.695 40-128 40s-128-23.297-128-40c0-4.612 3.7-9.714 10.498-14.613 57.784 31.072 186.044 30.041 239.492-2.559 25.285-15.443 26.445-34.587 15.231-48.77 14.991-8.601 22.779-18.774 22.779-30.058 0-4.419-3.582-8-8-8s-8 3.581-8 8c0 5.385-6.468 13.101-23.516 20.591-58.277 24.773-164.745 24.926-225.557 5.722-11.713-3.699-38.928-14.039-38.928-26.313.001-4.546 4.524-9.86 12.552-14.878zm39.358-51.178c-25.744-6.973-27.91-13.878-27.91-13.946 0-.07 2.342-7.594 31.431-14.866 48.749-12.188 128.378-12.19 177.139 0 29.088 7.272 31.431 14.796 31.431 14.866 0 .067-2.166 6.973-27.91 13.946-53.84 13.453-130.704 13.362-184.181 0zm-12.981-56.258c57.834-18.264 152.294-18.268 210.143 0 28.702 9.064 38.929 19.535 38.929 26.313 0 3.344-2.497 7.588-8.468 12.118-11.613-48.069-259.453-48.06-271.064 0-5.971-4.53-8.468-8.774-8.468-12.118 0-6.778 10.226-17.249 38.928-26.313zm236.52 59.436c8.028 5.018 12.552 10.332 12.552 14.876 0 6.777-10.227 17.249-38.928 26.313-70.988 22.418-185.957 15.853-232.449-9.055-1.876-1.196-16.623-8.715-16.623-17.257 0-4.544 4.523-9.858 12.552-14.876 59.273 29.082 197.958 31.861 262.896-.001zm-89.143 306.194-42.305 89.894-42.305-89.895c26.481 6.243 58.096 6.251 84.61.001zm61.455-107.67c3.946 3.092 8.24 7.555 8.24 12.352 0 15.538-44.119 36-112 36-46.778 0-73.955-9.846-76.2-10.353-11.61-3.71-35.8-13.556-35.8-25.647 0-4.797 4.294-9.259 8.24-12.352 55.976 21.759 151.234 21.879 207.52 0zm18.394-98.428c3.121 3.003 5.846 6.77 5.846 10.78 0 5.422-5.096 11.521-14.346 17.17-49.808 30.38-177.467 30.4-227.304.002-9.254-5.651-14.35-11.75-14.35-17.172 0-4.01 2.725-7.777 5.846-10.78 62.83 25.012 181.384 25.049 244.308 0z"/></svg>