<svg id="Layer_1" enable-background="new 0 0 512 512" height="512" viewBox="0 0 512 512" width="512" xmlns="http://www.w3.org/2000/svg"><path d="m306.34 290.34c-3.113 3.113-3.117 8.203 0 11.32 3.115 3.115 8.203 3.117 11.32 0 3.121-3.122 3.109-8.209 0-11.32-3.116-3.115-8.203-3.116-11.32 0z"/><path d="m352 376c0-22.056-17.944-40-40-40s-40 17.944-40 40c0 4.418 3.582 8 8 8s8-3.582 8-8c0-13.233 10.767-24 24-24s24 10.767 24 24-10.767 24-24 24h-304c-4.418 0-8 3.582-8 8s3.582 8 8 8h304c22.056 0 40-17.944 40-40z"/><path d="m472 432h-304c-4.418 0-8 3.582-8 8s3.582 8 8 8h304c13.233 0 24 10.767 24 24s-10.767 24-24 24-24-10.767-24-24c0-4.418-3.582-8-8-8s-8 3.582-8 8c0 22.056 17.944 40 40 40s40-17.944 40-40-17.944-40-40-40z"/><path d="m392 464h-288c-4.418 0-8 3.582-8 8s3.582 8 8 8h288c4.418 0 8-3.582 8-8s-3.582-8-8-8z"/><circle cx="72" cy="472" r="8"/><path d="m72 368c-4.418 0-8 3.582-8 8s3.582 8 8 8h176c4.418 0 8-3.582 8-8s-3.582-8-8-8z"/><path d="m34.34 370.34c-3.114 3.114-3.117 8.203 0 11.32 3.113 3.113 8.201 3.119 11.32 0 3.114-3.115 3.115-8.203 0-11.32-3.116-3.115-8.203-3.116-11.32 0z"/><path d="m376 368c-4.418 0-8 3.582-8 8s3.582 8 8 8h64c4.418 0 8-3.582 8-8s-3.582-8-8-8z"/><path d="m466.34 370.34c-3.113 3.134-3.116 8.184 0 11.32 3.113 3.113 8.201 3.119 11.32 0 3.114-3.115 3.115-8.203 0-11.32-3.116-3.115-8.203-3.116-11.32 0z"/><path d="m48 240c-17.645 0-32 14.355-32 32s14.355 32 32 32h232c4.418 0 8-3.582 8-8s-3.582-8-8-8h-232c-8.822 0-16-7.178-16-16s7.178-16 16-16h64c4.418 0 8-3.581 8-8s-3.582-8-8-8h-16c0-26.467 21.532-48 48-48 4.418 0 8-3.581 8-8 0-35.29 28.71-64 64-64s64 28.71 64 64c0 4.419 3.582 8 8 8s8-3.581 8-8c0-32.284-19.233-60.143-46.834-72.772 37.111-40.487 101.242-42.192 140.102-1.689 1.509 1.572 3.594 2.461 5.772 2.461h68.96c8.822 0 16 7.178 16 16s-7.178 16-16 16h-104c-4.418 0-8 3.581-8 8s3.582 8 8 8c70.205 0 57.442-.067 60.685.169 33.26 2.398 59.315 30.436 59.315 63.831 0 35.29-28.71 64-64 64h-72c-4.418 0-8 3.582-8 8s3.582 8 8 8h72c44.112 0 80-35.888 80-80 0-25.952-12.592-49.316-32.112-64 17.988 0 32.112-14.541 32.112-32 0-17.645-14.355-32-32-32h-65.62c-40.585-39.847-103.206-42.243-146.867-8.562-14.459-51.31-61.39-87.438-115.513-87.438-66.168 0-120 53.832-120 120 0 45.221 25.45 86.429 65.375 106.852-.891 4.247-1.375 8.641-1.375 13.148zm-16-120c0-88.839 104.925-136.491 171.855-78.821 17.651 15.209 29.671 35.879 34.153 58.542-1.816 1.949-3.561 3.974-5.244 6.061-47.187-10.106-91.983 23.558-96.411 70.673-21.808 2.608-40.28 16.226-49.685 35.12-33.459-18.038-54.668-53.137-54.668-91.575z"/></svg>