<svg id="Layer_1" enable-background="new 0 0 512 512" height="512" viewBox="0 0 512 512" width="512" xmlns="http://www.w3.org/2000/svg"><path d="m306.34 290.34c-3.114 3.114-3.117 8.203 0 11.32 3.115 3.115 8.203 3.117 11.32 0 3.115-3.115 3.117-8.203 0-11.32-3.116-3.115-8.203-3.116-11.32 0z"/><path d="m352 376c0-22.056-17.944-40-40-40s-40 17.944-40 40c0 4.418 3.581 8 8 8 4.418 0 8-3.582 8-8 0-13.233 10.767-24 24-24s24 10.767 24 24-10.767 24-24 24h-304c-4.418 0-8 3.582-8 8s3.582 8 8 8h304c22.056 0 40-17.944 40-40z"/><path d="m472 432h-304c-4.419 0-8 3.582-8 8s3.581 8 8 8h304c13.233 0 24 10.767 24 24s-10.767 24-24 24-24-10.767-24-24c0-4.418-3.582-8-8-8-4.419 0-8 3.582-8 8 0 22.056 17.944 40 40 40s40-17.944 40-40-17.944-40-40-40z"/><path d="m392 464h-288c-4.419 0-8 3.582-8 8s3.581 8 8 8h288c4.418 0 8-3.582 8-8s-3.582-8-8-8z"/><circle cx="72" cy="472" r="8"/><path d="m72 368c-4.419 0-8 3.582-8 8s3.581 8 8 8h176c4.418 0 8-3.582 8-8s-3.582-8-8-8z"/><path d="m34.34 370.34c-3.114 3.116-3.116 8.203 0 11.32 3.113 3.112 8.203 3.117 11.32 0 3.115-3.114 3.117-8.203 0-11.32-3.116-3.115-8.203-3.116-11.32 0z"/><path d="m376 368c-4.419 0-8 3.582-8 8s3.581 8 8 8h64c4.418 0 8-3.582 8-8s-3.582-8-8-8z"/><path d="m466.34 370.34c-3.114 3.136-3.115 8.184 0 11.32 3.114 3.114 8.203 3.117 11.32 0 3.115-3.114 3.117-8.203 0-11.32-3.116-3.115-8.204-3.115-11.32 0z"/><path d="m48 240c-17.645 0-32 14.355-32 32s14.355 32 32 32h232c4.418 0 8-3.582 8-8s-3.582-8-8-8h-232c-8.822 0-16-7.178-16-16s7.178-16 16-16h72c4.418 0 8-3.581 8-8s-3.582-8-8-8h-24c0-26.448 21.334-48 48-48 4.419 0 8-3.581 8-8 0-23.243 12.619-45.763 35.577-57.349 42.697-21.261 92.423 10.354 92.423 57.349 0 4.419 3.581 8 8 8 4.418 0 8-3.581 8-8 0-31.505-18.766-59.95-46.817-72.79 37.043-40.394 101.165-42.238 140.085-1.671 1.509 1.572 3.594 2.461 5.773 2.461h68.959c8.822 0 16 7.178 16 16s-7.178 16-16 16h-104c-4.419 0-8 3.581-8 8s3.581 8 8 8c70.248 0 57.424-.068 60.685.169 33.26 2.398 59.315 30.436 59.315 63.831 0 35.29-28.71 64-64 64h-72c-4.419 0-8 3.582-8 8s3.581 8 8 8h72c44.112 0 80-35.888 80-80 0-25.952-12.592-49.316-32.112-64 17.988 0 32.112-14.541 32.112-32 0-17.645-14.355-32-32-32h-65.621c-47.569-46.705-124.427-41.289-165.602 9.764-12.641-2.698-26.022-2.319-38.581 1.243 5.428-15.677 20.371-27.007 37.804-27.007 4.418 0 8-3.581 8-8s-3.582-8-8-8c-22.056 0-40-17.944-40-40 0-4.419-3.581-8-8-8s-8 3.581-8 8c0 22.056-17.944 40-40 40-4.419 0-8 3.581-8 8s3.581 8 8 8c20.255 0 37.148 15.283 39.66 34.915-10.159 5.923-18.828 13.968-25.497 23.643-23.056-10.143-38.163-32.951-38.163-58.558 0-29.302 21.371-56.854 49.748-64.189 9.232-2.046 7.744-15.811-1.748-15.811h-24c-66.169 0-120 53.832-120 120 0 45.217 25.445 86.422 65.364 106.847-.901 4.309-1.364 8.71-1.364 13.153zm116.784-167.979c7.863-4.731 14.479-11.341 19.216-19.201 4.738 7.861 11.353 14.472 19.218 19.203-7.859 4.746-14.475 11.363-19.216 19.229-4.741-7.865-11.359-14.485-19.218-19.231zm-132.784 47.979c0-54.223 41.713-98.878 94.733-103.583-48.285 40.17-37.015 111.908 15.683 136.204-3.224 7.566-5.281 15.611-6.06 23.831-21.487 2.557-40.157 15.781-49.712 35.109-33.444-18.04-54.644-53.132-54.644-91.561z"/></svg>